<svg width="70" height="70" viewBox="0 0 70 70" fill="none" xmlns="http://www.w3.org/2000/svg">
<path d="M18.3022 58.3334C14.0244 58.3334 10.3907 56.8386 7.40112 53.849C4.41154 50.8594 2.91675 47.2257 2.91675 42.948C2.91675 39.1563 4.13203 35.8264 6.56258 32.9584C8.99314 30.0903 12.0799 28.3646 15.823 27.7813C16.7952 23.066 19.0799 19.2136 22.6772 16.224C26.2744 13.2344 30.4306 11.7396 35.1459 11.7396C40.5904 11.7396 45.1841 13.7205 48.9272 17.6823C52.6702 21.6441 54.5417 26.3959 54.5417 31.9375V33.6875C58.0417 33.5903 61.007 34.7205 63.4376 37.0782C65.8681 39.4358 67.0834 42.4132 67.0834 46.0105C67.0834 49.3646 65.8681 52.257 63.4376 54.6875C61.007 57.1181 58.1147 58.3334 54.7605 58.3334H18.3022ZM18.3022 53.9584H54.7605C56.948 53.9584 58.8195 53.1806 60.3751 51.625C61.9306 50.0695 62.7084 48.198 62.7084 46.0105C62.7084 43.823 61.9306 41.9514 60.3751 40.3959C58.8195 38.8403 56.948 38.0625 54.7605 38.0625H50.1667V31.9375C50.1667 27.5139 48.6841 23.7709 45.7188 20.7084C42.7536 17.6459 39.132 16.1146 34.8542 16.1146C30.5765 16.1146 26.9428 17.6459 23.9532 20.7084C20.9636 23.7709 19.4688 27.5139 19.4688 31.9375H18.0834C15.0695 31.9375 12.5174 32.9948 10.4272 35.1094C8.33689 37.224 7.29175 39.8368 7.29175 42.948C7.29175 46.0105 8.36119 48.6111 10.5001 50.75C12.639 52.8889 15.2397 53.9584 18.3022 53.9584Z" fill="white"/>
</svg>
