<svg width="70" height="70" viewBox="0 0 70 70" fill="none" xmlns="http://www.w3.org/2000/svg">
<path d="M35.0002 5.83337C31.1699 5.83337 27.3772 6.58779 23.8386 8.05355C20.2999 9.51932 17.0846 11.6677 14.3762 14.3761C8.9064 19.8459 5.8335 27.2646 5.8335 35C5.8335 35.7736 6.14079 36.5155 6.68777 37.0624C7.23475 37.6094 7.97661 37.9167 8.75016 37.9167H32.0835V55.4167C32.0835 57.7373 33.0054 59.9629 34.6463 61.6039C36.2873 63.2448 38.5129 64.1667 40.8335 64.1667C43.1541 64.1667 45.3797 63.2448 47.0207 61.6039C48.6616 59.9629 49.5835 57.7373 49.5835 55.4167C49.5835 54.6432 49.2762 53.9013 48.7292 53.3543C48.1822 52.8073 47.4404 52.5 46.6668 52.5C45.8933 52.5 45.1514 52.8073 44.6044 53.3543C44.0575 53.9013 43.7502 54.6432 43.7502 55.4167C43.7502 56.1903 43.4429 56.9321 42.8959 57.4791C42.3489 58.0261 41.607 58.3334 40.8335 58.3334C40.0599 58.3334 39.3181 58.0261 38.7711 57.4791C38.2241 56.9321 37.9168 56.1903 37.9168 55.4167V37.9167H61.2502C62.0237 37.9167 62.7656 37.6094 63.3126 37.0624C63.8595 36.5155 64.1668 35.7736 64.1668 35C64.1668 31.1698 63.4124 27.3771 61.9466 23.8384C60.4809 20.2998 58.3325 17.0845 55.6241 14.3761C52.9157 11.6677 49.7004 9.51932 46.1618 8.05355C42.6231 6.58779 38.8304 5.83337 35.0002 5.83337V5.83337ZM11.8418 32.0834C12.5379 26.4317 15.2768 21.2296 19.5423 17.4572C23.8079 13.6848 29.3058 11.6024 35.0002 11.6024C40.6946 11.6024 46.1924 13.6848 50.458 17.4572C54.7236 21.2296 57.4624 26.4317 58.1585 32.0834H11.8418Z" fill="white"/>
</svg>
