<svg width="70" height="70" viewBox="0 0 70 70" fill="none" xmlns="http://www.w3.org/2000/svg">
<path d="M38.1354 27.7083V23.3333H54.9063V27.7083H38.1354ZM38.1354 18.9583V14.5833H61.4688V18.9583H38.1354ZM21.5833 61.1771C17.9375 61.1771 14.8142 59.8767 12.2135 57.276C9.61285 54.6753 8.3125 51.5521 8.3125 47.9062C8.3125 45.5729 8.89583 43.3733 10.0625 41.3073C11.2292 39.2413 12.8333 37.5764 14.875 36.3125V15.4583C14.875 13.6111 15.5313 12.0312 16.8438 10.7187C18.1563 9.40625 19.7361 8.75 21.5833 8.75C23.4306 8.75 25.0104 9.40625 26.3229 10.7187C27.6354 12.0312 28.2917 13.6111 28.2917 15.4583V36.3125C30.3333 37.5764 31.9375 39.2413 33.1042 41.3073C34.2708 43.3733 34.8542 45.5729 34.8542 47.9062C34.8542 51.5521 33.5538 54.6753 30.9531 57.276C28.3524 59.8767 25.2292 61.1771 21.5833 61.1771ZM12.6875 47.9062H30.4792C30.4792 46.2049 30.0174 44.5278 29.0938 42.875C28.1701 41.2222 26.9306 40.0556 25.375 39.375L23.9167 38.7187V15.4583C23.9167 14.7778 23.6979 14.2187 23.2604 13.7812C22.8229 13.3437 22.2639 13.125 21.5833 13.125C20.9028 13.125 20.3438 13.3437 19.9063 13.7812C19.4688 14.2187 19.25 14.7778 19.25 15.4583V38.7187L17.7917 39.375C16.0903 40.1528 14.8142 41.3437 13.9635 42.9479C13.1128 44.5521 12.6875 46.2049 12.6875 47.9062V47.9062Z" fill="white"/>
</svg>
