<svg width="70" height="70" viewBox="0 0 70 70" fill="none" xmlns="http://www.w3.org/2000/svg">
<path d="M35.0001 62.7083C28.5834 62.7083 23.0904 60.4843 18.5209 56.0364C13.9515 51.5885 11.6667 46.1562 11.6667 39.7395C11.6667 36.5312 12.2744 33.5538 13.4897 30.8073C14.7049 28.0607 16.382 25.618 18.5209 23.4791L35.0001 7.29163L51.4792 23.4791C53.6181 25.618 55.2952 28.0607 56.5105 30.8073C57.7258 33.5538 58.3334 36.5312 58.3334 39.7395C58.3334 46.1076 56.0608 51.5277 51.5157 56C46.9706 60.4722 41.4654 62.7083 35.0001 62.7083ZM16.1147 37.8437H53.8855C53.6424 35.6562 53.0834 33.651 52.2084 31.8281C51.3334 30.0052 50.1181 28.3159 48.5626 26.7604L35.0001 13.4166L21.4376 26.7604C19.882 28.3159 18.6667 30.0052 17.7917 31.8281C16.9167 33.651 16.3577 35.6562 16.1147 37.8437Z" fill="white"/>
</svg>
