<svg width="72" height="72" viewBox="0 0 72 72" fill="none" xmlns="http://www.w3.org/2000/svg">
<path d="M27.5709 3.58118C28.3842 2.5588 29.387 1.80337 30.4901 1.38204C31.5933 0.960717 32.7627 0.88655 33.8943 1.16613C35.026 1.44572 36.0848 2.07039 36.9767 2.98463C37.8686 3.89886 38.5659 5.07432 39.0067 6.40653C39.4475 7.73873 39.6181 9.1864 39.5032 10.6208C39.3884 12.0553 38.9918 13.4321 38.3486 14.6288C37.7055 15.8255 36.8357 16.8051 35.8165 17.4804C34.7974 18.1558 33.6606 18.506 32.507 18.5H1M38.0733 68.4188C38.8865 69.4412 39.8893 70.1966 40.9925 70.618C42.0957 71.0393 43.265 71.1135 44.3967 70.8339C45.5283 70.5543 46.5871 69.9296 47.479 69.0154C48.3709 68.1011 49.0683 66.9257 49.509 65.5935C49.9498 64.2613 50.1204 62.8136 50.0056 61.3792C49.8908 59.9447 49.4942 58.5679 48.851 57.3712C48.2078 56.1745 47.338 55.1949 46.3189 54.5196C45.2998 53.8442 44.1629 53.494 43.0094 53.5H1M56.0673 17.3187C57.0855 16.0495 58.3383 15.1133 59.7149 14.5931C61.0915 14.0729 62.5494 13.9847 63.9598 14.3362C65.3701 14.6877 66.6895 15.4682 67.801 16.6085C68.9126 17.7489 69.7822 19.214 70.3329 20.8742C70.8836 22.5345 71.0985 24.3388 70.9584 26.1276C70.8184 27.9163 70.3278 29.6343 69.53 31.1297C68.7323 32.6251 67.6519 33.8518 66.3845 34.7013C65.1172 35.5507 63.7018 35.9968 62.2637 36H1" stroke="white" stroke-width="2" stroke-linecap="round" stroke-linejoin="round"/>
</svg>
